<svg xmlns="http://www.w3.org/2000/svg" width="15" height="15" version="1" viewBox="0 0 243 230" aria-hidden="true" class="bv-rnr__qdad0u-0 gwUSq"><path d="M1033 2254c-343-57-646-279-805-589-114-224-152-453-113-693 77-475 452-850 927-927 607-98 1184 318 1283 927 77 476-163 950-590 1170-223 114-463 152-702 112zm-170-625c12-6 97-86 189-177l168-167 172 172c189 187 208 199 267 167 39-21 57-60 46-102-4-16-73-94-178-199l-171-173 171-172c105-106 174-184 178-200 11-42-7-81-46-102-59-32-78-20-266 167l-173 171-172-171C937 733 865 669 846 664c-63-15-127 50-111 113 4 18 71 93 178 201l171 172-171 173c-110 110-174 182-179 201-18 74 62 139 129 105z" transform="matrix(.1 0 0 -.1 0 230)"></path></svg>